<svg width="11" height="18" viewBox="0 0 11 18" fill="none" xmlns="http://www.w3.org/2000/svg">
<path id="XMLID 449" d="M6.325 10.5697C8.90279 10.5697 11 8.31106 11 5.53484C11 2.75863 8.90279 0.5 6.325 0.5C6.31493 0.5 6.30492 0.500178 6.29497 0.500592H2.4761C2.47571 0.500592 2.47538 0.500533 2.47505 0.500533C2.01943 0.500533 1.65005 0.898345 1.65005 1.38903V1.38909V9.68118V12.3467H0.825C0.36938 12.3467 0 12.7445 0 13.2352C0 13.7259 0.36938 14.1237 0.825 14.1237H1.65V16.6115C1.65 17.1022 2.01938 17.5 2.475 17.5C2.93062 17.5 3.3 17.1022 3.3 16.6115V14.1237H6.325C6.78062 14.1237 7.15 13.7259 7.15 13.2352C7.15 12.7445 6.78062 12.3467 6.325 12.3467H3.3V10.5697H6.325ZM6.325 2.2776C6.33391 2.2776 6.34282 2.27742 6.35162 2.27712C8.00745 2.29252 9.35 3.74801 9.35 5.53484C9.35 7.33122 7.99298 8.79268 6.325 8.79268H3.3V2.2776H6.325Z" fill="#7FC9F0"/>
</svg>
