<svg width="24" height="24" viewBox="0 0 24 24" fill="none" xmlns="http://www.w3.org/2000/svg">
<g id="box">
<g id="Vector">
<path fill-rule="evenodd" clip-rule="evenodd" d="M11.5559 2.34523C11.5556 2.34538 11.5553 2.34553 11.555 2.34568L3.55726 6.34458L3.55505 6.34568C3.38844 6.42847 3.24823 6.55609 3.15019 6.7142C3.05218 6.87226 3.00018 7.05451 3.00005 7.24049C3.00005 7.24043 3.00005 7.24055 3.00005 7.24049V16.7671C2.99875 16.9535 3.04954 17.1365 3.14672 17.2955C3.24374 17.4543 3.38313 17.5828 3.5492 17.6667C3.54893 17.6666 3.54948 17.6668 3.5492 17.6667L11.5473 21.6657C11.6862 21.7352 11.8397 21.7716 11.995 21.7716C12.1504 21.7716 12.3036 21.7354 12.4425 21.6659L20.4428 17.6657L20.445 17.6646C20.6117 17.5818 20.7519 17.4542 20.8499 17.2961C20.948 17.138 20.9999 16.9557 21 16.7696V7.24068C20.9999 7.05464 20.948 6.87231 20.8499 6.7142C20.7519 6.55609 20.6117 6.42847 20.445 6.34568L20.4428 6.34458L12.445 2.34568C12.4447 2.34553 12.4445 2.34538 12.4442 2.34523C12.3061 2.27681 12.1541 2.24121 12 2.24121C11.846 2.24121 11.694 2.27681 11.5559 2.34523ZM12.89 1.45015L13.335 0.554619C12.9202 0.348483 12.4633 0.241211 12 0.241211C11.5368 0.241211 11.0799 0.348483 10.665 0.554619L10.6628 0.555723L2.66505 4.55462C2.66464 4.55482 2.66423 4.55503 2.66381 4.55523C2.16454 4.80361 1.74436 5.18625 1.45047 5.66019C1.15633 6.13452 1.00034 6.68149 1.00005 7.23962L1.00005 16.757C0.996878 17.3148 1.14927 17.8624 1.44015 18.3384C1.7317 18.8155 2.15077 19.2016 2.65007 19.4532L2.65283 19.4546L10.6525 23.4544C11.0693 23.663 11.529 23.7716 11.995 23.7716C12.461 23.7716 12.9206 23.663 13.3373 23.4546C13.3372 23.4546 13.3374 23.4545 13.3373 23.4546L21.335 19.4557C21.3354 19.4555 21.3357 19.4553 21.336 19.4552C21.8354 19.2068 22.2557 18.8241 22.5496 18.3501C22.8438 17.8758 22.9998 17.3288 23 16.7707V7.24015C22.9998 6.68202 22.8438 6.13451 22.5496 5.66019C22.2557 5.18626 21.8356 4.80364 21.3363 4.55526C21.3359 4.55504 21.3355 4.55483 21.335 4.55462L13.3373 0.555723L12.89 1.45015Z" fill="#7FC9F0"/>
<path fill-rule="evenodd" clip-rule="evenodd" d="M1.42562 5.71294C1.67261 5.21896 2.27328 5.01873 2.76726 5.26572L12 9.88212L21.2328 5.26572C21.7268 5.01873 22.3275 5.21896 22.5745 5.71294C22.8215 6.20691 22.6212 6.80759 22.1273 7.05458L12.4473 11.8946C12.1657 12.0353 11.8344 12.0353 11.5528 11.8946L1.87283 7.05458C1.37886 6.80759 1.17863 6.20691 1.42562 5.71294Z" fill="#7FC9F0"/>
<path fill-rule="evenodd" clip-rule="evenodd" d="M12 10.0001C12.5523 10.0001 13 10.4479 13 11.0001V22.7602C13 23.3124 12.5523 23.7602 12 23.7602C11.4478 23.7602 11 23.3124 11 22.7602V11.0001C11 10.4479 11.4478 10.0001 12 10.0001Z" fill="#7FC9F0"/>
</g>
</g>
</svg>
