<svg width="24" height="24" viewBox="0 0 24 24" fill="none" xmlns="http://www.w3.org/2000/svg">
<g id="share">
<g id="Vector">
<path fill-rule="evenodd" clip-rule="evenodd" d="M13 4C13 4.55228 12.5523 5 12 5L4 5C3.73478 5 3.48043 5.10536 3.29289 5.29289C3.10536 5.48043 3 5.73478 3 6L3 18C3 18.2652 3.10536 18.5196 3.29289 18.7071C3.48043 18.8946 3.73478 19 4 19L12 19C12.5523 19 13 19.4477 13 20C13 20.5523 12.5523 21 12 21L4 21C3.20435 21 2.44129 20.6839 1.87868 20.1213C1.31607 19.5587 0.999999 18.7956 0.999999 18L1 6C1 5.20435 1.31607 4.44129 1.87868 3.87868C2.44129 3.31607 3.20435 3 4 3L12 3C12.5523 3 13 3.44771 13 4Z" fill="#7FC9F0"/>
<path fill-rule="evenodd" clip-rule="evenodd" d="M22.7071 11.2929C23.0976 11.6834 23.0976 12.3166 22.7071 12.7071L18.7071 16.7071C18.3166 17.0976 17.6834 17.0976 17.2929 16.7071C16.9024 16.3166 16.9024 15.6834 17.2929 15.2929L20.5858 12L17.2929 8.70711C16.9024 8.31658 16.9024 7.68342 17.2929 7.29289C17.6834 6.90237 18.3166 6.90237 18.7071 7.29289L22.7071 11.2929Z" fill="#7FC9F0"/>
<path fill-rule="evenodd" clip-rule="evenodd" d="M23 12C23 12.5523 22.5523 13 22 13L9 13C8.44771 13 8 12.5523 8 12C8 11.4477 8.44771 11 9 11L22 11C22.5523 11 23 11.4477 23 12Z" fill="#7FC9F0"/>
</g>
</g>
</svg>
