<svg width="78" height="80" viewBox="0 0 78 80" fill="none" xmlns="http://www.w3.org/2000/svg">
<path fill-rule="evenodd" clip-rule="evenodd" d="M35.3364 6.90684C42.1605 7.79987 49.4865 3.84448 55.4752 7.23577C61.6725 10.7452 63.5473 18.3969 66.8079 24.7287C70.8166 32.5131 79.8822 40.2393 76.6641 48.3825C73.3972 56.649 60.1632 54.0079 53.103 59.4079C45.7231 65.0524 44.6195 79.6066 35.3364 79.9919C26.1786 80.372 23.0799 67.2732 16.465 60.9286C11.0902 55.7734 2.03691 53.5837 0.26193 46.3508C-1.50524 39.1497 6.18545 33.2538 7.90346 26.0408C9.86844 17.7909 4.00994 6.26264 10.9658 1.41105C17.9674 -3.47244 26.8722 5.79916 35.3364 6.90684Z" fill="#7FC9F0"/>
<path d="M38.768 54.24C38.096 54.24 37.52 54.032 37.04 53.616C36.56 53.2 36.32 52.608 36.32 51.84C36.32 50.048 36.352 47.712 36.416 44.832L32.816 44.88C30.48 44.88 28.32 44.912 26.336 44.976C24.992 45.04 23.888 44.8 23.024 44.256C22.16 43.68 21.728 42.816 21.728 41.664C21.728 41.088 21.888 40.512 22.208 39.936C22.528 39.36 23.088 38.672 23.888 37.872C24.784 36.976 26.56 34.576 29.216 30.672C31.904 26.768 33.776 23.824 34.832 21.84C35.28 20.976 35.76 20.368 36.272 20.016C36.784 19.632 37.392 19.44 38.096 19.44C38.832 19.44 39.472 19.712 40.016 20.256C40.56 20.8 40.864 21.68 40.928 22.896C41.376 30.096 41.52 35.808 41.36 40.032C43.632 40.032 45.232 40.048 46.16 40.08C46.896 40.08 47.472 40.304 47.888 40.752C48.304 41.2 48.512 41.744 48.512 42.384C48.512 43.056 48.288 43.648 47.84 44.16C47.424 44.64 46.832 44.88 46.064 44.88C45.104 44.848 43.504 44.832 41.264 44.832C41.168 47.072 41.12 49.44 41.12 51.936C41.12 52.672 40.88 53.248 40.4 53.664C39.952 54.048 39.408 54.24 38.768 54.24ZM36.56 40.032C36.624 38.368 36.64 36.256 36.608 33.696C36.576 31.136 36.512 29.296 36.416 28.176C34.144 32.048 31.44 36.032 28.304 40.128L36.56 40.032Z" fill="white"/>
</svg>
