<svg width="81" height="80" viewBox="0 0 81 80" fill="none" xmlns="http://www.w3.org/2000/svg">
<path fill-rule="evenodd" clip-rule="evenodd" d="M42.9825 6.60791C51.6118 4.35173 61.2839 -3.38164 68.6188 1.69374C75.9044 6.73509 70.6811 18.6868 72.8531 27.277C74.8032 34.9896 82.7184 41.5419 80.6354 49.2197C78.5475 56.9154 68.9922 59.2429 62.8134 64.2825C56.1246 69.738 51.5715 79.0786 42.9825 79.93C34.2803 80.7926 27.2674 73.4924 20.0738 68.5193C12.6838 63.4103 3.2398 59.3418 0.724953 50.716C-1.77646 42.1364 2.61276 32.9286 7.51968 25.4597C11.6331 19.1985 18.9158 16.4758 25.5303 12.9596C31.1338 9.98076 36.8429 8.21315 42.9825 6.60791Z" fill="#7FC9F0"/>
<path d="M44.7628 55.504C44.7308 56.144 44.4908 56.704 44.0428 57.184C43.5948 57.632 43.0348 57.84 42.3628 57.808C41.7228 57.776 41.1628 57.52 40.6828 57.04C40.2348 56.56 40.0268 55.984 40.0588 55.312C40.3148 47.088 40.3628 39.568 40.2028 32.752C39.7548 33.168 39.2588 33.52 38.7148 33.808C37.6268 34.48 36.0908 34.992 34.1068 35.344C33.4348 35.472 32.8268 35.344 32.2828 34.96C31.7388 34.576 31.4028 34.064 31.2748 33.424C31.1788 32.752 31.3228 32.144 31.7068 31.6C32.0908 31.056 32.6028 30.736 33.2428 30.64C34.6508 30.384 35.6588 30.064 36.2668 29.68C36.9388 29.296 37.6428 28.576 38.3788 27.52V27.472C38.3788 27.44 38.3788 27.408 38.3788 27.376C38.4108 27.312 38.4268 27.248 38.4268 27.184C38.4588 27.088 38.4908 26.976 38.5228 26.848C38.5868 26.72 38.6348 26.576 38.6668 26.416C39.3068 24.528 40.4428 23.632 42.0748 23.728C42.9708 23.792 43.6428 24.208 44.0908 24.976C44.3148 25.296 44.4908 25.696 44.6188 26.176C44.7468 26.688 44.8268 27.36 44.8588 28.192C44.8908 28.544 44.9068 29.888 44.9068 32.224C44.9068 33.44 44.9068 35.376 44.9068 38.032C44.9388 40.688 44.9548 42.768 44.9548 44.272C44.9548 45.744 44.9388 47.536 44.9068 49.648C44.8748 51.76 44.8268 53.712 44.7628 55.504Z" fill="white"/>
</svg>
