<svg width="70" height="80" viewBox="0 0 70 80" fill="none" xmlns="http://www.w3.org/2000/svg">
<path fill-rule="evenodd" clip-rule="evenodd" d="M36.9728 0.713014C45.1817 -0.206791 54.4814 -1.12283 60.9146 4.05858C67.2894 9.19308 68.3863 18.4219 69.0855 26.5775C69.6668 33.3571 65.2171 39.1905 64.5068 45.9578C63.4953 55.5954 70.285 66.8753 64.0752 74.3148C58.0549 81.5273 46.2623 80.3484 36.9728 78.9445C28.5815 77.6764 21.0647 73.0993 15.2332 66.9335C10.1079 61.5144 9.1288 53.8986 6.63619 46.8685C4.05445 39.587 -1.56128 32.6016 0.41214 25.1322C2.40784 17.5785 10.1388 13.3594 16.6358 9.02001C22.878 4.85083 29.5131 1.54888 36.9728 0.713014Z" fill="#7FC9F0"/>
<path d="M36.816 55.952C34.736 55.792 32.944 55.2 31.44 54.176C29.968 53.216 28.896 52.096 28.224 50.816C28.096 50.56 27.664 49.408 26.928 47.36C26.704 46.752 26.72 46.144 26.976 45.536C27.264 44.896 27.712 44.464 28.32 44.24C28.96 44.016 29.584 44.048 30.192 44.336C30.8 44.592 31.216 45.056 31.44 45.728C32.08 47.52 32.416 48.432 32.448 48.464C32.736 49.008 33.264 49.536 34.032 50.048C34.896 50.592 35.984 50.944 37.296 51.104C38.608 51.232 39.936 51.088 41.28 50.672C42.624 50.256 43.712 49.664 44.544 48.896C45.376 48.096 45.872 47.184 46.032 46.16C46.288 44.432 45.584 43.04 43.92 41.984C43.28 41.6 42.544 41.28 41.712 41.024C41.456 40.928 41.2 40.848 40.944 40.784L40.704 40.736C40.64 40.736 40.592 40.72 40.56 40.688C40.496 40.688 40.432 40.672 40.368 40.64C40.272 40.608 40.176 40.56 40.08 40.496C39.92 40.432 39.76 40.32 39.6 40.16C39.12 39.744 38.848 39.2 38.784 38.528C38.72 37.792 38.944 37.12 39.456 36.512C39.616 36.32 39.808 36.144 40.032 35.984L40.992 35.36C41.888 34.752 42.56 34.24 43.008 33.824C44.352 32.64 44.832 31.456 44.448 30.272C43.808 28.192 42.384 27.008 40.176 26.72C39.12 26.56 38.032 26.64 36.912 26.96C35.824 27.28 34.864 27.792 34.032 28.496C33.776 28.752 33.552 28.96 33.36 29.12C33.2 29.248 33.04 29.44 32.88 29.696C32.752 29.952 32.656 30.144 32.592 30.272C32.528 30.4 32.4 30.704 32.208 31.184C32.016 31.664 31.84 32.048 31.68 32.336C31.424 32.944 30.976 33.376 30.336 33.632C29.728 33.856 29.12 33.824 28.512 33.536C27.904 33.248 27.488 32.784 27.264 32.144C27.04 31.504 27.072 30.88 27.36 30.272C27.424 30.112 27.568 29.76 27.792 29.216C28.048 28.64 28.224 28.24 28.32 28.016C28.448 27.792 28.64 27.472 28.896 27.056C29.152 26.64 29.44 26.256 29.76 25.904C30.08 25.52 30.48 25.136 30.96 24.752C32.304 23.568 33.856 22.72 35.616 22.208C37.376 21.696 39.12 21.568 40.848 21.824C42.704 22.08 44.368 22.8 45.84 23.984C47.344 25.136 48.416 26.704 49.056 28.688C50.08 31.984 49.12 34.944 46.176 37.568L46.128 37.616L46.416 37.808C47.888 38.736 49.056 39.952 49.92 41.456C50.816 42.96 51.088 44.784 50.736 46.928C50.416 49.104 49.488 50.912 47.952 52.352C46.448 53.792 44.688 54.8 42.672 55.376C40.88 55.984 38.928 56.176 36.816 55.952Z" fill="white"/>
</svg>
