<svg width="80" height="81" viewBox="0 0 80 81" fill="none" xmlns="http://www.w3.org/2000/svg">
<path fill-rule="evenodd" clip-rule="evenodd" d="M0.241553 38.3272C-0.885075 29.2469 1.9172 18.8985 8.90244 12.9886C15.6155 7.30901 25.8908 11.6892 34.3905 9.43547C42.1392 7.38089 48.5343 -2.23955 56.0751 0.480665C63.6632 3.21796 62.9256 14.4653 67.236 21.2839C71.1237 27.4339 80.0015 31.0515 80 38.3272C79.9985 45.6029 70.694 48.9676 67.229 55.3654C62.8911 63.3749 65.789 76.6755 57.3603 80.1291C49.1278 83.5023 41.7987 72.9416 33.79 69.0669C27.2105 65.8836 20.0593 64.413 14.6702 59.4752C8.22049 53.5654 1.31868 47.0084 0.241553 38.3272Z" fill="#7FC9F0"/>
<path d="M51.296 54.096C46.56 53.776 42.496 53.648 39.104 53.712C39.008 53.712 38.8 53.728 38.48 53.76C38.192 53.76 37.792 53.776 37.28 53.808C36.8 53.808 36.368 53.808 35.984 53.808C35.152 53.84 34.496 53.856 34.016 53.856C33.696 53.888 33.456 53.888 33.296 53.856H32.96C32.704 53.856 32.432 53.808 32.144 53.712C31.344 53.392 30.56 52.912 29.792 52.272C29.056 51.6 28.608 50.752 28.448 49.728C28.256 48.64 28.528 47.488 29.264 46.272C29.712 45.504 30.416 44.624 31.376 43.632C32.144 42.864 34.096 41.12 37.232 38.4C39.888 36.096 41.792 34.304 42.944 33.024C44.352 31.392 45.072 30.144 45.104 29.28C45.136 27.712 44.768 26.56 44 25.824C43.264 25.056 42.272 24.64 41.024 24.576C39.68 24.544 38.384 24.912 37.136 25.68C35.92 26.416 35.04 27.44 34.496 28.752C34.464 28.88 34.432 29.104 34.4 29.424C34.336 30.416 34.304 30.928 34.304 30.96C34.208 31.6 33.888 32.128 33.344 32.544C32.832 32.928 32.24 33.088 31.568 33.024C30.928 32.928 30.4 32.624 29.984 32.112C29.6 31.568 29.44 30.96 29.504 30.288C29.536 30.16 29.552 30.032 29.552 29.904C29.584 29.776 29.6 29.632 29.6 29.472C29.6 29.28 29.616 29.136 29.648 29.04C29.712 28.24 29.856 27.568 30.08 27.024C30.976 24.688 32.48 22.88 34.592 21.6C36.704 20.32 38.896 19.712 41.168 19.776C43.664 19.872 45.76 20.768 47.456 22.464C49.152 24.128 49.968 26.432 49.904 29.376C49.84 31.424 48.72 33.696 46.544 36.192C45.328 37.568 43.28 39.504 40.4 42C37.424 44.56 35.552 46.224 34.784 46.992C34.112 47.696 33.632 48.288 33.344 48.768C33.312 48.8 33.296 48.848 33.296 48.912C33.36 48.976 33.456 49.024 33.584 49.056H33.92C34.368 49.056 35.008 49.04 35.84 49.008C36.224 49.008 36.672 49.008 37.184 49.008C37.696 48.976 38.096 48.96 38.384 48.96C38.704 48.928 38.912 48.912 39.008 48.912C42.56 48.848 46.752 48.976 51.584 49.296C52.256 49.328 52.8 49.6 53.216 50.112C53.664 50.624 53.872 51.216 53.84 51.888C53.808 52.528 53.536 53.072 53.024 53.52C52.512 53.936 51.936 54.128 51.296 54.096Z" fill="white"/>
</svg>
