<svg width="7" height="12" viewBox="0 0 7 12" fill="none" xmlns="http://www.w3.org/2000/svg">
<path id="XMLID 449" d="M4.025 7.01568C5.66541 7.01568 7 5.55421 7 3.75784C7 1.96147 5.66541 0.5 4.025 0.5C4.0186 0.5 4.01222 0.500115 4.00589 0.500383H1.5757C1.57545 0.500383 1.57525 0.500345 1.57503 0.500345C1.28509 0.500345 1.05003 0.757753 1.05003 1.07526V1.0753V6.44077V8.16551H0.525C0.23506 8.16551 0 8.42291 0 8.74042C0 9.05792 0.23506 9.31533 0.525 9.31533H1.05V10.9251C1.05 11.2426 1.28506 11.5 1.575 11.5C1.86494 11.5 2.1 11.2426 2.1 10.9251V9.31533H4.025C4.31494 9.31533 4.55 9.05792 4.55 8.74042C4.55 8.42291 4.31494 8.16551 4.025 8.16551H2.1V7.01568H4.025ZM4.025 1.65021C4.03067 1.65021 4.03634 1.65009 4.04194 1.6499C5.09565 1.65987 5.95 2.60165 5.95 3.75784C5.95 4.9202 5.08644 5.86585 4.025 5.86585H2.1V1.65021H4.025Z" fill="#446B80"/>
</svg>
