<svg width="40" height="40" viewBox="0 0 40 40" fill="none" xmlns="http://www.w3.org/2000/svg">
<g id="fb">
<path id="Vector" d="M8.54102 35H18.6523V23.9805H15.0195V20.3477H18.6523V15.8066C18.6523 13.3027 20.6894 11.2656 23.1934 11.2656H27.7344V14.8984H24.1016C23.0999 14.8984 22.2852 15.7132 22.2852 16.7148V20.3477H27.5705L26.965 23.9805H22.2852V35H30.459C32.9629 35 35 32.9629 35 30.459V8.54102C35 6.03707 32.9629 4 30.459 4H8.54102C6.03707 4 4 6.03707 4 8.54102V30.459C4 32.9629 6.03707 35 8.54102 35ZM5.81641 8.54102C5.81641 7.0387 7.0387 5.81641 8.54102 5.81641H30.459C31.9613 5.81641 33.1836 7.0387 33.1836 8.54102V30.459C33.1836 31.9613 31.9613 33.1836 30.459 33.1836H24.1016V25.7969H28.5037L29.7147 18.5312H24.1016V16.7148H29.5508V9.44922H23.1934C19.6878 9.44922 16.8359 12.3011 16.8359 15.8066V18.5312H13.2031V25.7969H16.8359V33.1836H8.54102C7.0387 33.1836 5.81641 31.9613 5.81641 30.459V8.54102Z" fill="#7FC9F0"/>
</g>
</svg>
