<svg width="110" height="111" viewBox="0 0 110 111" fill="none" xmlns="http://www.w3.org/2000/svg">
<g id="Group">
<path id="Vector (Stroke)" fill-rule="evenodd" clip-rule="evenodd" d="M73.315 14.8674C64.4512 10.918 54.5482 9.93954 45.0829 12.0781C35.6175 14.2167 27.0971 19.3576 20.7923 26.7343C14.4874 34.1109 10.736 43.328 10.0976 53.0109C9.45907 62.6937 11.9677 72.3236 17.2493 80.4642C22.531 88.6049 30.3026 94.8201 39.4051 98.1831C48.5077 101.546 58.4534 101.876 67.7591 99.125C77.0648 96.3736 85.2318 90.6878 91.042 82.9156C96.8523 75.1435 99.9945 65.7013 100 55.9974V51.4003C100 48.6389 102.239 46.4003 105 46.4003C107.761 46.4003 110 48.6389 110 51.4003V56.0003C109.993 67.8606 106.153 79.4039 99.0513 88.9032C91.9499 98.4025 81.9681 105.352 70.5945 108.715C59.2209 112.077 47.0649 111.674 35.9396 107.563C24.8142 103.453 15.3156 95.8567 8.86028 85.907C2.40496 75.9573 -0.661148 64.1875 0.119222 52.3529C0.899593 40.5183 5.48464 29.253 13.1905 20.2371C20.8964 11.2212 31.3103 4.93776 42.879 2.32396C54.4478 -0.289836 66.5515 0.906014 77.385 5.73316C79.9074 6.85706 81.0411 9.81294 79.9172 12.3353C78.7933 14.8577 75.8374 15.9913 73.315 14.8674Z" fill="#7FC9F0"/>
<path id="Vector (Stroke)_2" fill-rule="evenodd" clip-rule="evenodd" d="M108.534 12.4627C110.487 14.4143 110.489 17.5802 108.537 19.5338L58.5373 69.5838C57.5998 70.5222 56.3278 71.0497 55.0012 71.05C53.6747 71.0503 52.4025 70.5235 51.4645 69.5855L36.4645 54.5855C34.5118 52.6329 34.5118 49.4671 36.4645 47.5145C38.4171 45.5618 41.5829 45.5618 43.5355 47.5145L54.9982 58.9772L101.463 12.4662C103.414 10.5126 106.58 10.5111 108.534 12.4627Z" fill="#7FC9F0"/>
</g>
</svg>
