<svg width="40" height="40" viewBox="0 0 40 40" fill="none" xmlns="http://www.w3.org/2000/svg">
<g id="instagram-outlined">
<path id="Vector" d="M19.9992 11.9885C15.5656 11.9885 11.9875 15.5666 11.9875 20.0002C11.9875 24.4338 15.5656 28.0119 19.9992 28.0119C24.4328 28.0119 28.0109 24.4338 28.0109 20.0002C28.0109 15.5666 24.4328 11.9885 19.9992 11.9885ZM19.9992 25.2072C17.132 25.2072 14.7922 22.8674 14.7922 20.0002C14.7922 17.133 17.132 14.7932 19.9992 14.7932C22.8664 14.7932 25.2062 17.133 25.2062 20.0002C25.2062 22.8674 22.8664 25.2072 19.9992 25.2072ZM28.339 9.79315C27.3039 9.79315 26.468 10.6291 26.468 11.6642C26.468 12.6994 27.3039 13.5353 28.339 13.5353C29.3742 13.5353 30.2101 12.7033 30.2101 11.6642C30.2105 11.4184 30.1623 11.175 30.0683 10.9478C29.9744 10.7207 29.8366 10.5143 29.6628 10.3405C29.489 10.1667 29.2826 10.0289 29.0555 9.93495C28.8283 9.84103 28.5849 9.79285 28.339 9.79315ZM35.6164 20.0002C35.6164 17.8439 35.6359 15.7072 35.5148 13.5549C35.3937 11.0549 34.8234 8.83612 32.9953 7.008C31.1633 5.17597 28.9484 4.60956 26.4484 4.48847C24.2922 4.36737 22.1555 4.3869 20.0031 4.3869C17.8469 4.3869 15.7101 4.36737 13.5578 4.48847C11.0578 4.60956 8.83905 5.17987 7.01093 7.008C5.1789 8.84003 4.61249 11.0549 4.4914 13.5549C4.3703 15.7111 4.38983 17.8478 4.38983 20.0002C4.38983 22.1525 4.3703 24.2932 4.4914 26.4455C4.61249 28.9455 5.1828 31.1642 7.01093 32.9924C8.84296 34.8244 11.0578 35.3908 13.5578 35.5119C15.7141 35.633 17.8508 35.6135 20.0031 35.6135C22.1594 35.6135 24.2961 35.633 26.4484 35.5119C28.9484 35.3908 31.1672 34.8205 32.9953 32.9924C34.8273 31.1603 35.3937 28.9455 35.5148 26.4455C35.6398 24.2932 35.6164 22.1564 35.6164 20.0002ZM32.1789 29.2111C31.8937 29.9221 31.55 30.4533 30.9992 31.0002C30.4484 31.551 29.9211 31.8947 29.2101 32.1799C27.1555 32.9963 22.2765 32.8127 19.9992 32.8127C17.7219 32.8127 12.8391 32.9963 10.7844 32.1838C10.0734 31.8986 9.54218 31.5549 8.9953 31.0041C8.44452 30.4533 8.10077 29.926 7.81561 29.215C7.00311 27.1564 7.18671 22.2775 7.18671 20.0002C7.18671 17.7228 7.00311 12.84 7.81561 10.7853C8.10077 10.0744 8.44452 9.54315 8.9953 8.99628C9.54608 8.4494 10.0734 8.10175 10.7844 7.81659C12.8391 7.00409 17.7219 7.18769 19.9992 7.18769C22.2765 7.18769 27.1594 7.00409 29.2141 7.81659C29.925 8.10175 30.4562 8.4455 31.0031 8.99628C31.5539 9.54706 31.8976 10.0744 32.1828 10.7853C32.9953 12.84 32.8117 17.7228 32.8117 20.0002C32.8117 22.2775 32.9953 27.1564 32.1789 29.2111Z" fill="#7FC9F0"/>
</g>
</svg>
