<svg width="40" height="40" viewBox="0 0 40 40" fill="none" xmlns="http://www.w3.org/2000/svg">
<g id="vk">
<path id="Vector" d="M20.2414 33C26.028 33 23.9647 29.1901 24.4114 28.0947C24.4047 27.2765 24.3981 26.4896 24.4247 26.0112C24.7914 26.1187 25.6564 26.5745 27.443 28.3807C30.2013 31.2753 30.9063 33 33.1346 33H37.2363C38.5362 33 39.2129 32.4401 39.5512 31.9704C39.8779 31.5163 40.1979 30.7189 39.8479 29.4779C38.9329 26.4896 33.5963 21.3295 33.2646 20.7852C33.3146 20.6847 33.3946 20.5512 33.4363 20.4819H33.433C34.4863 19.0345 38.5062 12.7703 39.0979 10.2639C39.0996 10.2604 39.1012 10.2552 39.1012 10.25C39.4212 9.106 39.1279 8.36413 38.8246 7.94467C38.3679 7.3172 37.6413 7 36.6596 7H32.558C31.1847 7 30.143 7.71933 29.6163 9.03147C28.7347 11.3628 26.258 16.1572 24.4014 17.8541C24.3447 15.45 24.3831 13.6144 24.4131 12.2503C24.4731 9.5896 24.6664 7 22.0114 7H15.5648C13.9015 7 12.3099 8.88933 14.0332 11.1323C15.5398 13.0979 14.5748 14.1933 14.8998 19.6464C13.6332 18.2337 11.3799 14.4187 9.78656 9.5428C9.3399 8.22373 8.66324 7.00173 6.75826 7.00173H2.65664C0.993322 7.00173 0 7.94467 0 9.52373C0 13.0701 7.54825 33 20.2414 33ZM6.75826 9.60173C7.11992 9.60173 7.15659 9.60173 7.42492 10.3939C9.05657 15.3911 12.7165 22.7855 15.3898 22.7855C17.3981 22.7855 17.3981 20.6448 17.3981 19.8388L17.3965 13.422C17.2865 11.2987 16.5432 10.2413 16.0548 9.6L21.9014 9.60693C21.9048 9.6364 21.8681 16.7049 21.9181 18.4175C21.9181 20.8493 23.7747 22.2429 26.673 19.1923C29.7313 15.6025 31.8463 10.2361 31.9313 10.0177C32.0563 9.70573 32.1646 9.6 32.558 9.6H36.6596H36.6763C36.6746 9.6052 36.6746 9.6104 36.6729 9.6156C36.2979 11.4356 32.5963 17.2353 31.358 19.0363C31.338 19.064 31.3197 19.0935 31.3013 19.1229C30.7563 20.0485 30.313 21.0712 31.3763 22.5099H31.378C31.4747 22.6312 31.7263 22.9155 32.093 23.3107C33.233 24.5344 37.1429 28.7187 37.4896 30.3827C37.2596 30.4208 37.0096 30.3931 33.1346 30.4017C32.3096 30.4017 31.6647 29.1191 29.203 26.5364C26.9897 24.2969 25.5531 23.3817 24.2447 23.3817C21.7048 23.3817 21.8898 25.5259 21.9131 28.1189C21.9214 30.9304 21.9048 30.0412 21.9231 30.218C21.7748 30.2787 21.3498 30.4 20.2414 30.4C9.66656 30.4 2.77997 12.9436 2.51497 9.60693C2.60664 9.59827 3.86829 9.60347 6.75826 9.60173Z" fill="#7FC9F0"/>
</g>
</svg>
