<svg width="48" height="48" viewBox="0 0 48 48" fill="none" xmlns="http://www.w3.org/2000/svg">
<g id="arrow-left-circle">
<g id="Vector">
<path fill-rule="evenodd" clip-rule="evenodd" d="M24 6C14.0589 6 6 14.0589 6 24C6 33.9411 14.0589 42 24 42C33.9411 42 42 33.9411 42 24C42 14.0589 33.9411 6 24 6ZM2 24C2 11.8497 11.8497 2 24 2C36.1503 2 46 11.8497 46 24C46 36.1503 36.1503 46 24 46C11.8497 46 2 36.1503 2 24Z" fill="#446B80"/>
<path d="M25.4142 17.4142C26.1953 16.6332 26.1953 15.3668 25.4142 14.5858C24.6332 13.8047 23.3668 13.8047 22.5858 14.5858L14.5858 22.5858C13.8047 23.3668 13.8047 24.6332 14.5858 25.4142L22.5858 33.4142C23.3668 34.1953 24.6332 34.1953 25.4142 33.4142C26.1953 32.6332 26.1953 31.3668 25.4142 30.5858L20.8284 26H32C33.1046 26 34 25.1046 34 24C34 22.8954 33.1046 22 32 22H20.8284L25.4142 17.4142Z" fill="#446B80"/>
</g>
</g>
</svg>
