<svg width="48" height="48" viewBox="0 0 48 48" fill="none" xmlns="http://www.w3.org/2000/svg">
<g id="arrow-right-circle">
<g id="Vector">
<path fill-rule="evenodd" clip-rule="evenodd" d="M24 6C14.0589 6 6 14.0589 6 24C6 33.9411 14.0589 42 24 42C33.9411 42 42 33.9411 42 24C42 14.0589 33.9411 6 24 6ZM2 24C2 11.8497 11.8497 2 24 2C36.1503 2 46 11.8497 46 24C46 36.1503 36.1503 46 24 46C11.8497 46 2 36.1503 2 24Z" fill="#446B80"/>
<path d="M25.4142 14.5858C24.6332 13.8047 23.3668 13.8047 22.5858 14.5858C21.8047 15.3668 21.8047 16.6332 22.5858 17.4142L27.1716 22H16C14.8954 22 14 22.8954 14 24C14 25.1046 14.8954 26 16 26H27.1716L22.5858 30.5858C21.8047 31.3668 21.8047 32.6332 22.5858 33.4142C23.3668 34.1953 24.6332 34.1953 25.4142 33.4142L33.4142 25.4142C34.1953 24.6332 34.1953 23.3668 33.4142 22.5858L25.4142 14.5858Z" fill="#446B80"/>
</g>
</g>
</svg>
